<svg width="210" height="24" viewBox="0 0 210 24" fill="none" xmlns="http://www.w3.org/2000/svg">
<path d="M196.567 23.8381L200.939 14.7368L196.664 5.89474H200.194L202.883 10.9798L205.506 5.89474H209.069L204.858 14.7368L209.166 23.8381H205.636L202.883 18.4615L200.097 23.8381H196.567Z" fill="url(#paint0_linear_8_238)"/>
<path d="M182.445 18.9474V10.753C182.445 9.69501 182.92 8.66937 183.87 7.67611C184.993 6.48853 186.408 5.89474 188.113 5.89474V9.23077C186.991 9.23077 186.267 9.69501 185.943 10.6235C185.879 10.8178 185.846 11.0121 185.846 11.2065V18.4939C185.846 19.3144 186.224 19.9082 186.98 20.2753C187.325 20.448 187.714 20.5344 188.146 20.5344V23.8704C186.051 23.8704 184.432 23.0283 183.287 21.3441C182.726 20.502 182.445 19.7031 182.445 18.9474ZM189.571 23.8704V20.5344C190.607 20.5344 191.287 20.0918 191.611 19.2065C191.698 18.969 191.741 18.753 191.741 18.5587V11.2065C191.741 10.2996 191.32 9.69501 190.478 9.39271C190.197 9.28475 189.884 9.23077 189.538 9.23077V5.89474C191.568 5.89474 193.134 6.71525 194.235 8.35628C194.796 9.19838 195.077 9.9973 195.077 10.753V18.9474C195.077 20.0054 194.623 21.0418 193.717 22.0567C192.615 23.2443 191.233 23.8489 189.571 23.8704Z" fill="url(#paint1_linear_8_238)"/>
<path d="M166.251 23.8381V1.16599H169.846V23.8381H166.251ZM171.53 23.8381V20.664H172.534C173.42 20.664 174.186 20.4804 174.834 20.1134C175.957 19.4872 176.518 18.5047 176.518 17.166C176.518 16.7773 176.453 16.3995 176.324 16.0324C175.87 14.7153 174.834 14.0567 173.215 14.0567H171.53V10.915H173.215C173.754 10.915 174.251 10.8286 174.704 10.6559C175.892 10.2024 176.486 9.25236 176.486 7.80567C176.486 7.28745 176.378 6.78003 176.162 6.2834C175.536 4.98785 174.435 4.34008 172.858 4.34008H171.53V1.16599H173.312C175.19 1.16599 176.734 1.66262 177.943 2.65587C179.368 3.88664 180.081 5.52767 180.081 7.57895C180.081 7.88124 180.059 8.18354 180.016 8.48583C179.8 10.2564 179.088 11.5843 177.879 12.4696C179.368 13.614 180.124 15.2551 180.146 17.3927C180.146 18.7099 179.811 19.8974 179.142 20.9555C177.933 22.8772 176 23.8381 173.344 23.8381H171.53Z" fill="url(#paint2_linear_8_238)"/>
<path d="M151.028 18.9474V10.7206C151.072 9.66262 151.557 8.63698 152.486 7.64373C153.63 6.49933 155.012 5.91633 156.632 5.89474V9.1336C155.789 9.1336 155.152 9.51147 154.721 10.2672C154.569 10.5263 154.494 10.7638 154.494 10.9798V12.9231H160.648V11.0121C160.648 10.1053 160.151 9.51147 159.158 9.23077C158.877 9.1444 158.596 9.10121 158.316 9.10121V5.89474C159.849 5.89474 161.209 6.42375 162.397 7.48178C163.39 8.43185 163.897 9.50068 163.919 10.6883V16.2591H154.494V18.9474C154.494 19.5088 154.807 19.973 155.433 20.3401C155.822 20.556 156.243 20.664 156.696 20.664V23.8381C154.688 23.8381 153.101 23.0283 151.935 21.4089C151.331 20.5236 151.028 19.7031 151.028 18.9474ZM158.316 23.8381V20.6316C159.568 20.6316 160.432 20.1026 160.907 19.0445C160.972 18.8934 161.026 18.753 161.069 18.6235L163.951 19.6599C163.563 21.1282 162.688 22.2618 161.328 23.0607C160.399 23.5789 159.395 23.8381 158.316 23.8381Z" fill="url(#paint3_linear_8_238)"/>
<path d="M135.32 23.8381V0.809716H138.883V23.8381H135.32ZM139.757 14.8016L145.166 5.89474H149.117L143.611 14.8016L149.15 23.8381H145.231L139.757 14.8016Z" fill="url(#paint4_linear_8_238)"/>
<path d="M120.13 18.9474V10.753C120.13 9.69501 120.605 8.66937 121.555 7.67611C122.677 6.48853 124.092 5.89474 125.798 5.89474V9.23077C124.675 9.23077 123.951 9.69501 123.628 10.6235C123.563 10.8178 123.53 11.0121 123.53 11.2065V18.4939C123.53 19.3144 123.908 19.9082 124.664 20.2753C125.009 20.448 125.398 20.5344 125.83 20.5344V23.8704C123.735 23.8704 122.116 23.0283 120.972 21.3441C120.41 20.502 120.13 19.7031 120.13 18.9474ZM127.255 23.8704V20.5344C128.291 20.5344 128.972 20.0918 129.296 19.2065C129.382 18.969 129.425 18.753 129.425 18.5587V11.2065C129.425 10.2996 129.004 9.69501 128.162 9.39271C127.881 9.28475 127.568 9.23077 127.223 9.23077V5.89474C129.252 5.89474 130.818 6.71525 131.919 8.35628C132.48 9.19838 132.761 9.9973 132.761 10.753V18.9474C132.761 20.0054 132.308 21.0418 131.401 22.0567C130.3 23.2443 128.918 23.8489 127.255 23.8704Z" fill="url(#paint5_linear_8_238)"/>
<path d="M103.611 17.587V16H107.239V17.5223C107.26 18.7746 107.833 19.6599 108.955 20.1781C109.258 20.3077 109.517 20.3725 109.733 20.3725V24C108.545 24 107.347 23.5466 106.138 22.6397C104.475 21.3441 103.633 19.6599 103.611 17.587ZM111.385 24V20.3725C111.903 20.3725 112.475 20.135 113.101 19.6599C113.792 19.0985 114.148 18.4076 114.17 17.587V1.16599H117.765V17.587C117.765 19.9838 116.696 21.7976 114.559 23.0283C113.436 23.6761 112.378 24 111.385 24Z" fill="url(#paint6_linear_8_238)"/>
<path d="M81.8462 19.1093L85.0526 18.5263C85.0526 19.3684 85.4953 20.0054 86.3806 20.4372C86.7692 20.6316 87.1471 20.7287 87.5142 20.7287V24C85.2254 24 83.5735 23.1903 82.5587 21.5708C82.0837 20.7935 81.8462 19.973 81.8462 19.1093ZM82.0081 10.8826C82.0081 8.89609 82.9258 7.417 84.7611 6.44534C85.6464 5.9919 86.5317 5.76518 87.417 5.76518V8.97166C86.3806 8.97166 85.6896 9.38192 85.3441 10.2024C85.2578 10.4399 85.2146 10.6667 85.2146 10.8826C85.2146 11.5304 85.776 12.1026 86.8988 12.5992C87.8489 12.9879 89.2955 13.4089 91.2389 13.8623C92.7287 14.1646 93.7868 14.9312 94.413 16.1619C94.7368 16.8313 94.8988 17.5655 94.8988 18.3644C94.8988 20.502 94.0351 22.0783 92.3077 23.0931C91.3144 23.6977 90.1808 24 88.9069 24V20.7611C89.7706 20.7611 90.4831 20.4696 91.0445 19.8866C91.39 19.4764 91.5628 19.0229 91.5628 18.5263C91.5628 17.7706 90.7206 17.1336 89.0364 16.6154C88.691 16.5074 88.1511 16.3563 87.417 16.1619C86.3158 15.9028 85.5385 15.6869 85.085 15.5142C83.4872 14.8016 82.5155 13.7544 82.17 12.3725C82.0621 11.919 82.0081 11.4224 82.0081 10.8826ZM88.8745 8.97166V5.76518C90.7746 5.76518 92.3077 6.46694 93.4737 7.87045C94.2078 8.77733 94.5749 9.7274 94.5749 10.7206L91.3684 11.2713C91.3684 10.17 90.7746 9.44669 89.587 9.10121C89.3279 9.01485 89.0904 8.97166 88.8745 8.97166Z" fill="url(#paint7_linear_8_238)"/>
<path d="M76.8259 8.77733V0H80.1295V8.77733H76.8259Z" fill="url(#paint8_linear_8_238)"/>
<path d="M61.2794 23.8381V0.809716H64.8421V23.8381H61.2794ZM65.7166 14.8016L71.1255 5.89474H75.0769L69.5708 14.8016L75.1093 23.8381H71.1903L65.7166 14.8016Z" fill="url(#paint9_linear_8_238)"/>
<path d="M46.6397 18.9474V10.753C46.6613 9.9973 46.9312 9.21997 47.4494 8.42105C48.529 6.73684 50.1269 5.89474 52.2429 5.89474V9.16599C51.7679 9.16599 51.3468 9.26316 50.9798 9.45749C50.3536 9.78138 50.0405 10.2348 50.0405 10.8178V18.9474C50.0405 19.0985 50.0729 19.2497 50.1377 19.4008C50.4184 20.1565 51.1201 20.5344 52.2429 20.5344V23.8381C50.4723 23.8381 49.0472 23.2551 47.9676 22.0891C47.0823 21.1174 46.6397 20.0702 46.6397 18.9474ZM53.7004 9.19838V5.89474C54.8664 5.89474 55.9244 6.25101 56.8745 6.96356C58.17 7.97841 58.8178 9.28475 58.8178 10.8826L55.6437 12.081V11.1741C55.6437 11.0013 55.6221 10.8286 55.5789 10.6559C55.363 9.68421 54.7368 9.19838 53.7004 9.19838ZM53.7004 23.8704V20.5668C55.1471 20.5452 55.9244 19.865 56.0324 18.5263V17.6518L59.2065 18.8502C59.2065 20.0594 58.7206 21.1606 57.749 22.1538C56.583 23.3414 55.2335 23.9136 53.7004 23.8704Z" fill="url(#paint10_linear_8_238)"/>
<path d="M31.2227 19.0769V5.89474H34.7206V18.6883C34.7206 19.3792 35.0661 19.9082 35.7571 20.2753C36.1242 20.4696 36.5344 20.5668 36.9879 20.5668V24C34.8934 24 33.2632 23.1795 32.0972 21.5385C31.5142 20.6964 31.2227 19.8758 31.2227 19.0769ZM38.413 24V20.5668C39.4926 20.5668 40.2051 20.1457 40.5506 19.3036C40.637 19.0877 40.6802 18.8826 40.6802 18.6883V5.89474H44.1781V19.0769C44.1781 20.0918 43.7247 21.0958 42.8178 22.0891C41.6302 23.3414 40.1619 23.9784 38.413 24Z" fill="url(#paint11_linear_8_238)"/>
<path d="M16.2591 24V0.809716H19.498V6.99595C20.2321 6.54251 21.0418 6.31579 21.9271 6.31579V9.52227C21.0418 9.52227 20.3293 9.91093 19.7895 10.6883C19.6167 10.9474 19.5304 11.1849 19.5304 11.4008V24H16.2591ZM23.4818 9.52227V6.31579C25.5331 6.31579 27.0769 7.04993 28.1134 8.51822C28.6532 9.31714 28.9231 10.17 28.9231 11.0769V24H25.6518V11.4008C25.6518 10.753 25.3603 10.2456 24.7773 9.87854C24.3887 9.64102 23.9568 9.52227 23.4818 9.52227Z" fill="url(#paint12_linear_8_238)"/>
<path d="M0 17.9757V7.06073C0 6.11066 0.302294 5.12821 0.906883 4.11336C2.13765 2.04049 3.97301 1.00405 6.41296 1.00405V4.59919C5.63563 4.62078 4.96626 4.87989 4.40486 5.37652C3.86505 5.91633 3.59514 6.47773 3.59514 7.06073V17.9757C3.59514 18.17 3.65992 18.4184 3.78947 18.7206C4.26451 19.8435 5.139 20.4049 6.41296 20.4049V24C4.31849 23.9784 2.64507 23.1903 1.39271 21.6356C0.464238 20.448 0 19.2281 0 17.9757ZM8.06478 24V20.4049L8.51822 20.3077C8.84211 20.2429 9.19838 20.0702 9.58705 19.7895C9.97571 19.5088 10.2564 19.1525 10.4292 18.7206C10.5371 18.3968 10.5911 18.0081 10.5911 17.5547C10.6127 17.4899 10.6235 17.3387 10.6235 17.1012L14.1215 17.9433C14.1215 19.4548 13.5816 20.8043 12.502 21.9919C11.2497 23.3306 9.77058 24 8.06478 24ZM8.06478 4.59919V1.00405C9.48988 1.00405 10.8178 1.56545 12.0486 2.68826C13.4305 3.98381 14.1215 5.46289 14.1215 7.12551L10.5911 8.03239V7.54656C10.5911 7.1363 10.5371 6.76923 10.4292 6.44534C10.1484 5.75439 9.64103 5.22537 8.90688 4.8583C8.34548 4.68556 8.06478 4.59919 8.06478 4.59919Z" fill="url(#paint13_linear_8_238)"/>
<defs>
<linearGradient id="paint0_linear_8_238" x1="-1.63564" y1="-2.41835" x2="211.081" y2="19.8849" gradientUnits="userSpaceOnUse">
<stop stop-color="#EAF0FF"/>
<stop offset="1" stop-color="#B3C0DE"/>
</linearGradient>
<linearGradient id="paint1_linear_8_238" x1="-1.63561" y1="-2.41836" x2="211.081" y2="19.8848" gradientUnits="userSpaceOnUse">
<stop stop-color="#EAF0FF"/>
<stop offset="1" stop-color="#B3C0DE"/>
</linearGradient>
<linearGradient id="paint2_linear_8_238" x1="-1.63562" y1="-2.41836" x2="211.081" y2="19.8848" gradientUnits="userSpaceOnUse">
<stop stop-color="#EAF0FF"/>
<stop offset="1" stop-color="#B3C0DE"/>
</linearGradient>
<linearGradient id="paint3_linear_8_238" x1="-1.63562" y1="-2.41834" x2="211.081" y2="19.8849" gradientUnits="userSpaceOnUse">
<stop stop-color="#EAF0FF"/>
<stop offset="1" stop-color="#B3C0DE"/>
</linearGradient>
<linearGradient id="paint4_linear_8_238" x1="-1.63563" y1="-2.41834" x2="211.081" y2="19.8849" gradientUnits="userSpaceOnUse">
<stop stop-color="#EAF0FF"/>
<stop offset="1" stop-color="#B3C0DE"/>
</linearGradient>
<linearGradient id="paint5_linear_8_238" x1="-1.63562" y1="-2.41833" x2="211.081" y2="19.8849" gradientUnits="userSpaceOnUse">
<stop stop-color="#EAF0FF"/>
<stop offset="1" stop-color="#B3C0DE"/>
</linearGradient>
<linearGradient id="paint6_linear_8_238" x1="-1.63563" y1="-2.41834" x2="211.081" y2="19.8849" gradientUnits="userSpaceOnUse">
<stop stop-color="#EAF0FF"/>
<stop offset="1" stop-color="#B3C0DE"/>
</linearGradient>
<linearGradient id="paint7_linear_8_238" x1="-1.63562" y1="-2.41837" x2="211.081" y2="19.8848" gradientUnits="userSpaceOnUse">
<stop stop-color="#EAF0FF"/>
<stop offset="1" stop-color="#B3C0DE"/>
</linearGradient>
<linearGradient id="paint8_linear_8_238" x1="-1.63564" y1="-2.41835" x2="211.081" y2="19.8849" gradientUnits="userSpaceOnUse">
<stop stop-color="#EAF0FF"/>
<stop offset="1" stop-color="#B3C0DE"/>
</linearGradient>
<linearGradient id="paint9_linear_8_238" x1="-1.63562" y1="-2.41837" x2="211.081" y2="19.8848" gradientUnits="userSpaceOnUse">
<stop stop-color="#EAF0FF"/>
<stop offset="1" stop-color="#B3C0DE"/>
</linearGradient>
<linearGradient id="paint10_linear_8_238" x1="-1.63562" y1="-2.41835" x2="211.081" y2="19.8849" gradientUnits="userSpaceOnUse">
<stop stop-color="#EAF0FF"/>
<stop offset="1" stop-color="#B3C0DE"/>
</linearGradient>
<linearGradient id="paint11_linear_8_238" x1="-1.63562" y1="-2.41841" x2="211.081" y2="19.8848" gradientUnits="userSpaceOnUse">
<stop stop-color="#EAF0FF"/>
<stop offset="1" stop-color="#B3C0DE"/>
</linearGradient>
<linearGradient id="paint12_linear_8_238" x1="-1.63563" y1="-2.41831" x2="211.081" y2="19.8849" gradientUnits="userSpaceOnUse">
<stop stop-color="#EAF0FF"/>
<stop offset="1" stop-color="#B3C0DE"/>
</linearGradient>
<linearGradient id="paint13_linear_8_238" x1="-1.63563" y1="-2.41836" x2="211.081" y2="19.8848" gradientUnits="userSpaceOnUse">
<stop stop-color="#EAF0FF"/>
<stop offset="1" stop-color="#B3C0DE"/>
</linearGradient>
</defs>
</svg>
